<svg width="115" height="25" viewBox="0 0 115 25" fill="none" xmlns="http://www.w3.org/2000/svg">
<path d="M5.992 2.224C8.568 2.224 10.44 2.728 11.608 3.736C12.792 4.728 13.384 6.264 13.384 8.344C13.384 10.408 12.776 11.92 11.56 12.88C10.36 13.84 8.52 14.32 6.04 14.32H3.808V19H0.0640001V2.224H5.992ZM6.328 11.08C7.576 11.08 8.424 10.832 8.872 10.336C9.32 9.824 9.544 9.088 9.544 8.128C9.544 7.152 9.248 6.464 8.656 6.064C8.08 5.648 7.176 5.44 5.944 5.44H3.808V11.08H6.328ZM19.6462 12.04V19H16.0462V1.192H19.6462V7.528C20.7342 6.424 21.9502 5.872 23.2942 5.872C24.6542 5.872 25.7982 6.352 26.7262 7.312C27.6542 8.272 28.1182 9.552 28.1182 11.152V19H24.5182V11.944C24.5182 9.96 23.7902 8.968 22.3342 8.968C21.6142 8.968 20.9822 9.232 20.4382 9.76C19.9102 10.272 19.6462 11.032 19.6462 12.04ZM33.7063 24.088C32.4423 24.088 31.2503 23.576 30.1303 22.552L31.7623 19.888C32.3703 20.48 32.9943 20.776 33.6343 20.776C33.9703 20.776 34.2583 20.608 34.4983 20.272C34.7383 19.952 34.8583 19.608 34.8583 19.24C34.8583 18.872 33.1943 14.488 29.8663 6.088H33.7063L36.8503 14.128L39.9943 6.088H43.8343L37.8343 21.304C37.4823 22.184 36.9303 22.864 36.1783 23.344C35.4423 23.84 34.6183 24.088 33.7063 24.088ZM55.2162 14.992C55.2162 16.256 54.7442 17.272 53.8002 18.04C52.8722 18.808 51.6882 19.192 50.2482 19.192C49.2882 19.192 48.2882 19.024 47.2482 18.688C46.2082 18.336 45.2722 17.824 44.4402 17.152L46.0242 14.896C47.3682 15.936 48.8002 16.456 50.3202 16.456C50.7842 16.456 51.1522 16.368 51.4242 16.192C51.6962 16 51.8322 15.752 51.8322 15.448C51.8322 15.144 51.6402 14.864 51.2562 14.608C50.8882 14.352 50.3442 14.112 49.6242 13.888C48.9202 13.664 48.3762 13.472 47.9922 13.312C47.6242 13.152 47.2002 12.92 46.7202 12.616C45.7442 12.008 45.2562 11.112 45.2562 9.928C45.2562 8.728 45.7362 7.752 46.6962 7C47.6562 6.248 48.8962 5.872 50.4162 5.872C51.9362 5.872 53.4562 6.384 54.9762 7.408L53.6322 9.808C52.5122 9.04 51.3922 8.656 50.2722 8.656C49.1682 8.656 48.6162 8.96 48.6162 9.568C48.6162 9.904 48.7922 10.168 49.1442 10.36C49.4962 10.552 50.0802 10.776 50.8962 11.032C51.7122 11.288 52.2882 11.488 52.6242 11.632C52.9762 11.76 53.3922 11.968 53.8722 12.256C54.7682 12.8 55.2162 13.712 55.2162 14.992ZM61.6649 19H58.0649V6.088H61.6649V19ZM58.3529 4.456C57.9529 4.04 57.7529 3.536 57.7529 2.944C57.7529 2.352 57.9529 1.856 58.3529 1.456C58.7689 1.04 59.2729 0.831999 59.8649 0.831999C60.4569 0.831999 60.9529 1.04 61.3529 1.456C61.7689 1.856 61.9769 2.352 61.9769 2.944C61.9769 3.536 61.7689 4.04 61.3529 4.456C60.9529 4.856 60.4569 5.056 59.8649 5.056C59.2729 5.056 58.7689 4.856 58.3529 4.456ZM68.0528 12.544C68.0528 13.6 68.3488 14.464 68.9408 15.136C69.5488 15.792 70.3168 16.12 71.2448 16.12C72.1888 16.12 72.9568 15.792 73.5488 15.136C74.1568 14.464 74.4608 13.6 74.4608 12.544C74.4608 11.488 74.1568 10.624 73.5488 9.952C72.9568 9.28 72.1888 8.944 71.2448 8.944C70.3168 8.944 69.5488 9.28 68.9408 9.952C68.3488 10.624 68.0528 11.488 68.0528 12.544ZM78.0848 12.544C78.0848 14.416 77.4368 15.992 76.1407 17.272C74.8448 18.552 73.2128 19.192 71.2448 19.192C69.2928 19.192 67.6688 18.552 66.3728 17.272C65.0768 15.992 64.4288 14.416 64.4288 12.544C64.4288 10.672 65.0768 9.096 66.3728 7.816C67.6688 6.52 69.2928 5.872 71.2448 5.872C73.2128 5.872 74.8448 6.52 76.1407 7.816C77.4368 9.096 78.0848 10.672 78.0848 12.544ZM84.4587 11.8V19H80.8587V6.088H84.4587V7.528C85.5467 6.424 86.7707 5.872 88.1307 5.872C89.4907 5.872 90.6267 6.352 91.5387 7.312C92.4667 8.272 92.9307 9.552 92.9307 11.152V19H89.3307V11.704C89.3307 9.72 88.6027 8.728 87.1467 8.728C86.4267 8.728 85.7947 8.992 85.2507 9.52C84.7227 10.032 84.4587 10.792 84.4587 11.8ZM99.8868 19H96.2868V6.088H99.8868V19ZM96.5748 4.456C96.1748 4.04 95.9748 3.536 95.9748 2.944C95.9748 2.352 96.1748 1.856 96.5748 1.456C96.9908 1.04 97.4948 0.831999 98.0868 0.831999C98.6788 0.831999 99.1748 1.04 99.5748 1.456C99.9908 1.856 100.199 2.352 100.199 2.944C100.199 3.536 99.9908 4.04 99.5748 4.456C99.1748 4.856 98.6788 5.056 98.0868 5.056C97.4948 5.056 96.9908 4.856 96.5748 4.456ZM109.587 16C110.787 16 111.867 15.4 112.827 14.2L114.963 16.6C113.299 18.328 111.499 19.192 109.563 19.192C107.627 19.192 105.987 18.584 104.643 17.368C103.315 16.136 102.651 14.536 102.651 12.568C102.651 10.584 103.323 8.976 104.667 7.744C106.027 6.496 107.635 5.872 109.491 5.872C110.419 5.872 111.355 6.064 112.299 6.448C113.259 6.832 114.099 7.4 114.819 8.152L112.947 10.6C112.531 10.104 112.019 9.72 111.411 9.448C110.819 9.176 110.227 9.04 109.635 9.04C108.691 9.04 107.875 9.352 107.187 9.976C106.515 10.584 106.179 11.44 106.179 12.544C106.179 13.632 106.515 14.48 107.187 15.088C107.875 15.696 108.675 16 109.587 16Z" fill="#252B42"/>
</svg>
